<?xml version="1.0" encoding="utf-8"?>
<!-- Generator: Adobe Illustrator 19.1.0, SVG Export Plug-In . SVG Version: 6.00 Build 0)  -->
<!DOCTYPE svg PUBLIC "-//W3C//DTD SVG 1.1//EN" "http://www.w3.org/Graphics/SVG/1.1/DTD/svg11.dtd">
<svg version="1.1" id="レイヤー_1" xmlns="http://www.w3.org/2000/svg" xmlns:xlink="http://www.w3.org/1999/xlink" x="0px"
	 y="0px" viewBox="0 0 38 20" enable-background="new 0 0 38 20" xml:space="preserve">
<g>
	<defs>
		<path id="SVGID_1_" d="M27.1,20H10.9c-1,0-1.9-0.8-1.9-1.9V1.9C9,0.8,9.8,0,10.9,0h16.2c1,0,1.9,0.8,1.9,1.9v16.2
			C29,19.2,28.2,20,27.1,20z"/>
	</defs>
	<clipPath id="SVGID_2_">
		<use xlink:href="#SVGID_1_"  overflow="visible"/>
	</clipPath>
	<g clip-path="url(#SVGID_2_)">
		
			<line fill="none" stroke="#FFFFFF" stroke-width="2.5263" stroke-linecap="round" stroke-linejoin="round" stroke-miterlimit="10" x1="-0.6" y1="10.5" x2="20.1" y2="-10.2"/>
		
			<line fill="none" stroke="#FFFFFF" stroke-width="2.5263" stroke-linecap="round" stroke-linejoin="round" stroke-miterlimit="10" x1="2.6" y1="13.7" x2="23.3" y2="-7"/>
		
			<line fill="none" stroke="#FFFFFF" stroke-width="2.5263" stroke-linecap="round" stroke-linejoin="round" stroke-miterlimit="10" x1="5.8" y1="16.9" x2="26.5" y2="-3.8"/>
		
			<line fill="none" stroke="#FFFFFF" stroke-width="2.5263" stroke-linecap="round" stroke-linejoin="round" stroke-miterlimit="10" x1="9" y1="20.1" x2="29.7" y2="-0.6"/>
		
			<line fill="none" stroke="#FFFFFF" stroke-width="2.5263" stroke-linecap="round" stroke-linejoin="round" stroke-miterlimit="10" x1="12.2" y1="23.3" x2="32.8" y2="2.6"/>
		
			<line fill="none" stroke="#FFFFFF" stroke-width="2.5263" stroke-linecap="round" stroke-linejoin="round" stroke-miterlimit="10" x1="15.3" y1="26.4" x2="36" y2="5.8"/>
		
			<line fill="none" stroke="#FFFFFF" stroke-width="2.5263" stroke-linecap="round" stroke-linejoin="round" stroke-miterlimit="10" x1="18.5" y1="29.6" x2="39.2" y2="8.9"/>
	</g>
</g>
</svg>
