<?xml version="1.0" encoding="utf-8"?>
<!-- Generator: Adobe Illustrator 20.0.0, SVG Export Plug-In . SVG Version: 6.00 Build 0)  -->
<svg version="1.1" id="レイヤー_1" xmlns="http://www.w3.org/2000/svg" xmlns:xlink="http://www.w3.org/1999/xlink" x="0px"
	 y="0px" viewBox="0 0 26 26" style="enable-background:new 0 0 26 26;" xml:space="preserve">
<style type="text/css">
	.st0{fill:#FFFFFF;}
</style>
<path class="st0" d="M23.6,21.5L18.1,16c1-1.4,1.6-3.2,1.6-5.1c0-4.9-4-8.9-8.9-8.9S2,6,2,10.9s4,8.9,8.9,8.9c1.9,0,3.7-0.6,5.1-1.6
	l5.6,5.6c0.3,0.3,0.7,0.4,1.1,0.4s0.8-0.1,1.1-0.4C24.2,23.1,24.2,22.1,23.6,21.5z M4.7,10.9c0-3.4,2.8-6.1,6.1-6.1S17,7.5,17,10.9
	c0,3.4-2.8,6.1-6.1,6.1S4.7,14.2,4.7,10.9z"/>
</svg>
