<?xml version="1.0" encoding="utf-8"?>
<!-- Generator: Adobe Illustrator 19.1.0, SVG Export Plug-In . SVG Version: 6.00 Build 0)  -->
<!DOCTYPE svg PUBLIC "-//W3C//DTD SVG 1.1//EN" "http://www.w3.org/Graphics/SVG/1.1/DTD/svg11.dtd">
<svg version="1.1" id="レイヤー_1" xmlns="http://www.w3.org/2000/svg" xmlns:xlink="http://www.w3.org/1999/xlink" x="0px"
	 y="0px" viewBox="0 0 76 66" enable-background="new 0 0 76 66" xml:space="preserve">
<g>
	<path fill="#BBBBBB" d="M43.9,32.5c2.5,0,4.5-2,4.5-4.5c0-2.5-2-4.5-4.5-4.5c-2.5,0-4.5,2-4.5,4.5C39.4,30.4,41.4,32.5,43.9,32.5z"
		/>
	<path fill="#BBBBBB" d="M59.3,14H16.7c-1.5,0-2.7,1.2-2.7,2.8v32c0,1.5,1.2,3.2,2.7,3.2h42.6c1.5,0,2.7-1.7,2.7-3.2v-32
		C62,15.2,60.8,14,59.3,14z M57,42.6l-6.7-7.7c-0.2-0.3-0.6-0.3-0.9-0.1l-7.2,5.4L29.9,27.8c-0.1-0.1-0.3-0.2-0.5-0.2
		c-0.2,0-0.3,0.1-0.4,0.3l-10,14V19h38V42.6z"/>
	<path fill="#BBBBBB" d="M74,6h-4V2c0-1.1-0.9-2-2-2s-2,0.9-2,2v4h-4c-1.1,0-2,0.9-2,2s0.9,2,2,2h4v4c0,1.1,0.9,2,2,2s2-0.9,2-2v-4
		h4c1.1,0,2-0.9,2-2S75.1,6,74,6z"/>
</g>
</svg>
