<?xml version="1.0" encoding="utf-8"?>
<!-- Generator: Adobe Illustrator 19.1.0, SVG Export Plug-In . SVG Version: 6.00 Build 0)  -->
<!DOCTYPE svg PUBLIC "-//W3C//DTD SVG 1.1//EN" "http://www.w3.org/Graphics/SVG/1.1/DTD/svg11.dtd">
<svg version="1.1" id="レイヤー_1" xmlns="http://www.w3.org/2000/svg" xmlns:xlink="http://www.w3.org/1999/xlink" x="0px"
	 y="0px" viewBox="0 0 40 40" enable-background="new 0 0 40 40" xml:space="preserve">
<g>
	<g>
		<path fill="#FFFFFF" d="M17.4,23.9L15.7,21c-0.2-0.3-0.1-0.7,0.2-0.8c2.6-1.5,13.5-7.9,15.2-8.7c0.1,0,0.2-0.1,0.3-0.1
			c0.4,0,1.4,0.3,1.3,1.4c0,0.2-0.1,0.3-0.2,0.4c-1.9,1.9-11.8,9.1-14.2,10.9C18,24.4,17.6,24.3,17.4,23.9z"/>
		<path fill="#FFFFFF" d="M7.8,29.3c0,0.3,0.4,0.4,0.6,0.2c0.5-0.9,1.5-1.9,3.3-1.4c2.9,0.8,4.7-2.1,5-2.8c0.1-0.1,0-0.2,0-0.3
			l-2.1-3.7c-0.1-0.1-0.2-0.2-0.3-0.2C8.7,22.1,7.8,26.8,7.8,29.3z"/>
	</g>
</g>
</svg>
